<?xml version="1.0" standalone="no"?>
<!DOCTYPE svg PUBLIC "-//W3C//DTD SVG 20010904//EN"
 "http://www.w3.org/TR/2001/REC-SVG-20010904/DTD/svg10.dtd">
<svg version="1.0" xmlns="http://www.w3.org/2000/svg"
 width="24.000000pt" height="24.000000pt" viewBox="0 0 24.000000 24.000000"
 preserveAspectRatio="xMidYMid meet">
<metadata>
Created by potrace 1.16, written by Peter Selinger 2001-2019
</metadata>
<g transform="translate(0.000000,24.000000) scale(0.100000,-0.100000)"
fill="#000000" stroke="none">
<path d="M46 213 c-3 -8 -6 -23 -6 -33 0 -10 -7 -20 -15 -24 -20 -7 -20 -65 0
-72 8 -4 15 -17 15 -29 0 -32 15 -40 85 -41 63 -2 75 5 75 42 0 12 7 24 15 28
20 7 20 65 0 72 -8 4 -15 17 -15 29 0 32 -15 40 -87 41 -46 2 -63 -2 -67 -13z"/>
</g>
</svg>
